<mxfile host="Electron" agent="Mozilla/5.0 (Windows NT 10.0; Win64; x64) AppleWebKit/537.36 (KHTML, like Gecko) draw.io/24.7.5 Chrome/126.0.6478.183 Electron/31.3.0 Safari/537.36" version="24.7.5" pages="3">
  <diagram name="Run" id="xs3GYjB7ZHIX7CBP7PSK">
    <mxGraphModel dx="1730" dy="542" grid="1" gridSize="10" guides="1" tooltips="1" connect="1" arrows="1" fold="1" page="1" pageScale="1" pageWidth="850" pageHeight="1100" math="0" shadow="0">
      <root>
        <mxCell id="0" />
        <mxCell id="1" parent="0" />
        <mxCell id="SEuJ2zzyLnW1Gb6FDx3q-27" value="" style="shape=table;startSize=0;container=1;collapsible=0;childLayout=tableLayout;fontSize=16;" parent="1" vertex="1">
          <mxGeometry x="-745" y="270" width="740" height="40" as="geometry" />
        </mxCell>
        <mxCell id="SEuJ2zzyLnW1Gb6FDx3q-52" style="shape=tableRow;horizontal=0;startSize=0;swimlaneHead=0;swimlaneBody=0;strokeColor=inherit;top=0;left=0;bottom=0;right=0;collapsible=0;dropTarget=0;fillColor=none;points=[[0,0.5],[1,0.5]];portConstraint=eastwest;fontSize=16;" parent="SEuJ2zzyLnW1Gb6FDx3q-27" vertex="1">
          <mxGeometry width="740" height="40" as="geometry" />
        </mxCell>
        <mxCell id="SEuJ2zzyLnW1Gb6FDx3q-53" value="kubectl" style="shape=partialRectangle;html=1;whiteSpace=wrap;connectable=0;strokeColor=inherit;overflow=hidden;fillColor=none;top=0;left=0;bottom=0;right=0;pointerEvents=1;fontSize=16;" parent="SEuJ2zzyLnW1Gb6FDx3q-52" vertex="1">
          <mxGeometry width="80" height="40" as="geometry">
            <mxRectangle width="80" height="40" as="alternateBounds" />
          </mxGeometry>
        </mxCell>
        <mxCell id="SEuJ2zzyLnW1Gb6FDx3q-54" value="run" style="shape=partialRectangle;html=1;whiteSpace=wrap;connectable=0;strokeColor=inherit;overflow=hidden;fillColor=none;top=0;left=0;bottom=0;right=0;pointerEvents=1;fontSize=16;" parent="SEuJ2zzyLnW1Gb6FDx3q-52" vertex="1">
          <mxGeometry x="80" width="55" height="40" as="geometry">
            <mxRectangle width="55" height="40" as="alternateBounds" />
          </mxGeometry>
        </mxCell>
        <mxCell id="SEuJ2zzyLnW1Gb6FDx3q-55" value="&amp;lt;pod-name&amp;gt;" style="shape=partialRectangle;html=1;whiteSpace=wrap;connectable=0;strokeColor=inherit;overflow=hidden;fillColor=none;top=0;left=0;bottom=0;right=0;pointerEvents=1;fontSize=16;" parent="SEuJ2zzyLnW1Gb6FDx3q-52" vertex="1">
          <mxGeometry x="135" width="115" height="40" as="geometry">
            <mxRectangle width="115" height="40" as="alternateBounds" />
          </mxGeometry>
        </mxCell>
        <mxCell id="SEuJ2zzyLnW1Gb6FDx3q-56" value="--image=&amp;lt;image-name&amp;gt;" style="shape=partialRectangle;html=1;whiteSpace=wrap;connectable=0;strokeColor=inherit;overflow=hidden;fillColor=none;top=0;left=0;bottom=0;right=0;pointerEvents=1;fontSize=16;" parent="SEuJ2zzyLnW1Gb6FDx3q-52" vertex="1">
          <mxGeometry x="250" width="200" height="40" as="geometry">
            <mxRectangle width="200" height="40" as="alternateBounds" />
          </mxGeometry>
        </mxCell>
        <mxCell id="SEuJ2zzyLnW1Gb6FDx3q-62" value="--restart=Never" style="shape=partialRectangle;html=1;whiteSpace=wrap;connectable=0;strokeColor=inherit;overflow=hidden;fillColor=none;top=0;left=0;bottom=0;right=0;pointerEvents=1;fontSize=16;" parent="SEuJ2zzyLnW1Gb6FDx3q-52" vertex="1">
          <mxGeometry x="450" width="140" height="40" as="geometry">
            <mxRectangle width="140" height="40" as="alternateBounds" />
          </mxGeometry>
        </mxCell>
        <mxCell id="SEuJ2zzyLnW1Gb6FDx3q-61" value="--port=&amp;lt;app&#39;s port&amp;gt;" style="shape=partialRectangle;html=1;whiteSpace=wrap;connectable=0;strokeColor=inherit;overflow=hidden;fillColor=none;top=0;left=0;bottom=0;right=0;pointerEvents=1;fontSize=16;" parent="SEuJ2zzyLnW1Gb6FDx3q-52" vertex="1">
          <mxGeometry x="590" width="150" height="40" as="geometry">
            <mxRectangle width="150" height="40" as="alternateBounds" />
          </mxGeometry>
        </mxCell>
        <mxCell id="SEuJ2zzyLnW1Gb6FDx3q-63" value="" style="shape=curlyBracket;whiteSpace=wrap;html=1;rounded=1;labelPosition=left;verticalLabelPosition=middle;align=right;verticalAlign=middle;rotation=90;" parent="1" vertex="1">
          <mxGeometry x="-700" y="185" width="40" height="120" as="geometry" />
        </mxCell>
        <mxCell id="SEuJ2zzyLnW1Gb6FDx3q-64" value="&lt;span style=&quot;font-weight: normal;&quot;&gt;&lt;font style=&quot;font-size: 18px;&quot;&gt;Creating &amp;amp; Running K8s Resouce&lt;/font&gt;&lt;/span&gt;" style="text;strokeColor=none;fillColor=none;html=1;fontSize=24;fontStyle=1;verticalAlign=middle;align=center;" parent="1" vertex="1">
          <mxGeometry x="-820" y="185" width="290" height="40" as="geometry" />
        </mxCell>
        <mxCell id="SEuJ2zzyLnW1Gb6FDx3q-65" value="" style="shape=curlyBracket;whiteSpace=wrap;html=1;rounded=1;labelPosition=left;verticalLabelPosition=middle;align=right;verticalAlign=middle;rotation=-90;" parent="1" vertex="1">
          <mxGeometry x="-570" y="290" width="40" height="100" as="geometry" />
        </mxCell>
        <mxCell id="SEuJ2zzyLnW1Gb6FDx3q-66" value="&lt;span style=&quot;font-weight: normal;&quot;&gt;&lt;font style=&quot;font-size: 18px;&quot;&gt;Name of the Pod&lt;/font&gt;&lt;/span&gt;" style="text;strokeColor=none;fillColor=none;html=1;fontSize=24;fontStyle=1;verticalAlign=middle;align=center;" parent="1" vertex="1">
          <mxGeometry x="-640" y="350" width="160" height="40" as="geometry" />
        </mxCell>
        <mxCell id="SEuJ2zzyLnW1Gb6FDx3q-69" value="" style="shape=curlyBracket;whiteSpace=wrap;html=1;rounded=1;labelPosition=left;verticalLabelPosition=middle;align=right;verticalAlign=middle;rotation=90;" parent="1" vertex="1">
          <mxGeometry x="-415" y="152.5" width="40" height="185" as="geometry" />
        </mxCell>
        <mxCell id="SEuJ2zzyLnW1Gb6FDx3q-70" value="&lt;span style=&quot;font-weight: normal;&quot;&gt;&lt;font style=&quot;font-size: 18px;&quot;&gt;Container&#39;s Image to use in the Pod&lt;/font&gt;&lt;/span&gt;" style="text;strokeColor=none;fillColor=none;html=1;fontSize=24;fontStyle=1;verticalAlign=middle;align=center;" parent="1" vertex="1">
          <mxGeometry x="-510" y="185" width="290" height="40" as="geometry" />
        </mxCell>
        <mxCell id="5VcDRNb6X0g1kooFvF7e-1" value="" style="shape=curlyBracket;whiteSpace=wrap;html=1;rounded=1;labelPosition=left;verticalLabelPosition=middle;align=right;verticalAlign=middle;rotation=-90;" parent="1" vertex="1">
          <mxGeometry x="-245" y="285" width="40" height="110" as="geometry" />
        </mxCell>
        <mxCell id="5VcDRNb6X0g1kooFvF7e-2" value="&lt;font style=&quot;font-size: 18px;&quot;&gt;Restart Policy&lt;/font&gt;" style="text;strokeColor=none;fillColor=none;html=1;fontSize=24;fontStyle=1;verticalAlign=middle;align=center;" parent="1" vertex="1">
          <mxGeometry x="-291.25" y="350" width="132.5" height="40" as="geometry" />
        </mxCell>
        <mxCell id="5VcDRNb6X0g1kooFvF7e-3" value="" style="shape=curlyBracket;whiteSpace=wrap;html=1;rounded=1;labelPosition=left;verticalLabelPosition=middle;align=right;verticalAlign=middle;rotation=90;" parent="1" vertex="1">
          <mxGeometry x="-100" y="176.25" width="40" height="137.5" as="geometry" />
        </mxCell>
        <mxCell id="5VcDRNb6X0g1kooFvF7e-4" value="&lt;span style=&quot;font-weight: normal;&quot;&gt;&lt;font style=&quot;font-size: 18px;&quot;&gt;Container&#39;s Port&lt;/font&gt;&lt;/span&gt;" style="text;strokeColor=none;fillColor=none;html=1;fontSize=24;fontStyle=1;verticalAlign=middle;align=center;" parent="1" vertex="1">
          <mxGeometry x="-185" y="185" width="235" height="40" as="geometry" />
        </mxCell>
      </root>
    </mxGraphModel>
  </diagram>
  <diagram name="Expose" id="yNk38kg6B6Z-9e24pWmt">
    <mxGraphModel dx="1970" dy="542" grid="1" gridSize="10" guides="1" tooltips="1" connect="1" arrows="1" fold="1" page="1" pageScale="1" pageWidth="850" pageHeight="1100" math="0" shadow="0">
      <root>
        <mxCell id="pKxLhtzKVa9f1Tuy2Bbh-0" />
        <mxCell id="pKxLhtzKVa9f1Tuy2Bbh-1" parent="pKxLhtzKVa9f1Tuy2Bbh-0" />
        <mxCell id="pKxLhtzKVa9f1Tuy2Bbh-2" value="" style="shape=table;startSize=0;container=1;collapsible=0;childLayout=tableLayout;fontSize=16;" parent="pKxLhtzKVa9f1Tuy2Bbh-1" vertex="1">
          <mxGeometry x="-765" y="276.5" width="860" height="40" as="geometry" />
        </mxCell>
        <mxCell id="pKxLhtzKVa9f1Tuy2Bbh-3" style="shape=tableRow;horizontal=0;startSize=0;swimlaneHead=0;swimlaneBody=0;strokeColor=inherit;top=0;left=0;bottom=0;right=0;collapsible=0;dropTarget=0;fillColor=none;points=[[0,0.5],[1,0.5]];portConstraint=eastwest;fontSize=16;" parent="pKxLhtzKVa9f1Tuy2Bbh-2" vertex="1">
          <mxGeometry width="860" height="40" as="geometry" />
        </mxCell>
        <mxCell id="pKxLhtzKVa9f1Tuy2Bbh-4" value="kubectl" style="shape=partialRectangle;html=1;whiteSpace=wrap;connectable=0;strokeColor=inherit;overflow=hidden;fillColor=none;top=0;left=0;bottom=0;right=0;pointerEvents=1;fontSize=16;" parent="pKxLhtzKVa9f1Tuy2Bbh-3" vertex="1">
          <mxGeometry width="80" height="40" as="geometry">
            <mxRectangle width="80" height="40" as="alternateBounds" />
          </mxGeometry>
        </mxCell>
        <mxCell id="pKxLhtzKVa9f1Tuy2Bbh-5" value="expose" style="shape=partialRectangle;html=1;whiteSpace=wrap;connectable=0;strokeColor=inherit;overflow=hidden;fillColor=none;top=0;left=0;bottom=0;right=0;pointerEvents=1;fontSize=16;" parent="pKxLhtzKVa9f1Tuy2Bbh-3" vertex="1">
          <mxGeometry x="80" width="95" height="40" as="geometry">
            <mxRectangle width="95" height="40" as="alternateBounds" />
          </mxGeometry>
        </mxCell>
        <mxCell id="Mz83tQ6b4maWRSeY4ITh-0" value="pod" style="shape=partialRectangle;html=1;whiteSpace=wrap;connectable=0;strokeColor=inherit;overflow=hidden;fillColor=none;top=0;left=0;bottom=0;right=0;pointerEvents=1;fontSize=16;" parent="pKxLhtzKVa9f1Tuy2Bbh-3" vertex="1">
          <mxGeometry x="175" width="95" height="40" as="geometry">
            <mxRectangle width="95" height="40" as="alternateBounds" />
          </mxGeometry>
        </mxCell>
        <mxCell id="pKxLhtzKVa9f1Tuy2Bbh-6" value="&amp;lt;pod-name&amp;gt;" style="shape=partialRectangle;html=1;whiteSpace=wrap;connectable=0;strokeColor=inherit;overflow=hidden;fillColor=none;top=0;left=0;bottom=0;right=0;pointerEvents=1;fontSize=16;" parent="pKxLhtzKVa9f1Tuy2Bbh-3" vertex="1">
          <mxGeometry x="270" width="140" height="40" as="geometry">
            <mxRectangle width="140" height="40" as="alternateBounds" />
          </mxGeometry>
        </mxCell>
        <mxCell id="pKxLhtzKVa9f1Tuy2Bbh-7" value="--type=NodePort" style="shape=partialRectangle;html=1;whiteSpace=wrap;connectable=0;strokeColor=inherit;overflow=hidden;fillColor=none;top=0;left=0;bottom=0;right=0;pointerEvents=1;fontSize=16;" parent="pKxLhtzKVa9f1Tuy2Bbh-3" vertex="1">
          <mxGeometry x="410" width="160" height="40" as="geometry">
            <mxRectangle width="160" height="40" as="alternateBounds" />
          </mxGeometry>
        </mxCell>
        <mxCell id="pKxLhtzKVa9f1Tuy2Bbh-8" value="--port=&amp;lt;any port&amp;gt;" style="shape=partialRectangle;html=1;whiteSpace=wrap;connectable=0;strokeColor=inherit;overflow=hidden;fillColor=none;top=0;left=0;bottom=0;right=0;pointerEvents=1;fontSize=16;" parent="pKxLhtzKVa9f1Tuy2Bbh-3" vertex="1">
          <mxGeometry x="570" width="150" height="40" as="geometry">
            <mxRectangle width="150" height="40" as="alternateBounds" />
          </mxGeometry>
        </mxCell>
        <mxCell id="pKxLhtzKVa9f1Tuy2Bbh-9" value="--target-port=3000" style="shape=partialRectangle;html=1;whiteSpace=wrap;connectable=0;strokeColor=inherit;overflow=hidden;fillColor=none;top=0;left=0;bottom=0;right=0;pointerEvents=1;fontSize=16;" parent="pKxLhtzKVa9f1Tuy2Bbh-3" vertex="1">
          <mxGeometry x="720" width="140" height="40" as="geometry">
            <mxRectangle width="140" height="40" as="alternateBounds" />
          </mxGeometry>
        </mxCell>
        <mxCell id="pKxLhtzKVa9f1Tuy2Bbh-10" value="" style="shape=curlyBracket;whiteSpace=wrap;html=1;rounded=1;labelPosition=left;verticalLabelPosition=middle;align=right;verticalAlign=middle;rotation=90;" parent="pKxLhtzKVa9f1Tuy2Bbh-1" vertex="1">
          <mxGeometry x="-650.62" y="123.13" width="40" height="258.75" as="geometry" />
        </mxCell>
        <mxCell id="pKxLhtzKVa9f1Tuy2Bbh-12" value="" style="shape=curlyBracket;whiteSpace=wrap;html=1;rounded=1;labelPosition=left;verticalLabelPosition=middle;align=right;verticalAlign=middle;rotation=-90;" parent="pKxLhtzKVa9f1Tuy2Bbh-1" vertex="1">
          <mxGeometry x="-455" y="296.25" width="40" height="100" as="geometry" />
        </mxCell>
        <mxCell id="pKxLhtzKVa9f1Tuy2Bbh-13" value="&lt;span style=&quot;font-weight: normal;&quot;&gt;&lt;font style=&quot;font-size: 18px;&quot;&gt;Name of the Pod(which created earlier)&lt;/font&gt;&lt;/span&gt;" style="text;strokeColor=none;fillColor=none;html=1;fontSize=24;fontStyle=1;verticalAlign=middle;align=center;whiteSpace=wrap;" parent="pKxLhtzKVa9f1Tuy2Bbh-1" vertex="1">
          <mxGeometry x="-610" y="368.75" width="350" height="40" as="geometry" />
        </mxCell>
        <mxCell id="pKxLhtzKVa9f1Tuy2Bbh-14" value="" style="shape=curlyBracket;whiteSpace=wrap;html=1;rounded=1;labelPosition=left;verticalLabelPosition=middle;align=right;verticalAlign=middle;rotation=90;" parent="pKxLhtzKVa9f1Tuy2Bbh-1" vertex="1">
          <mxGeometry x="-300" y="176.25" width="40" height="145" as="geometry" />
        </mxCell>
        <mxCell id="pKxLhtzKVa9f1Tuy2Bbh-15" value="&lt;span style=&quot;font-weight: normal;&quot;&gt;&lt;font style=&quot;font-size: 18px;&quot;&gt;specifying the type of service to create&lt;/font&gt;&lt;/span&gt;" style="text;strokeColor=none;fillColor=none;html=1;fontSize=24;fontStyle=1;verticalAlign=top;align=center;container=0;whiteSpace=wrap;" parent="pKxLhtzKVa9f1Tuy2Bbh-1" vertex="1">
          <mxGeometry x="-370" y="160" width="180" height="40" as="geometry" />
        </mxCell>
        <mxCell id="pKxLhtzKVa9f1Tuy2Bbh-16" value="" style="shape=curlyBracket;whiteSpace=wrap;html=1;rounded=1;labelPosition=left;verticalLabelPosition=middle;align=right;verticalAlign=middle;rotation=-90;" parent="pKxLhtzKVa9f1Tuy2Bbh-1" vertex="1">
          <mxGeometry x="-130" y="286.25" width="40" height="110" as="geometry" />
        </mxCell>
        <mxCell id="pKxLhtzKVa9f1Tuy2Bbh-17" value="&lt;span style=&quot;font-weight: normal; font-size: 18px;&quot;&gt;The port on the service that will be exposed to external traffic&lt;/span&gt;" style="text;strokeColor=none;fillColor=none;html=1;fontSize=24;fontStyle=1;verticalAlign=middle;align=center;whiteSpace=wrap;" parent="pKxLhtzKVa9f1Tuy2Bbh-1" vertex="1">
          <mxGeometry x="-240" y="368.75" width="270" height="40" as="geometry" />
        </mxCell>
        <mxCell id="pKxLhtzKVa9f1Tuy2Bbh-18" value="" style="shape=curlyBracket;whiteSpace=wrap;html=1;rounded=1;labelPosition=left;verticalLabelPosition=middle;align=right;verticalAlign=middle;rotation=90;" parent="pKxLhtzKVa9f1Tuy2Bbh-1" vertex="1">
          <mxGeometry x="5" y="180" width="40" height="137.5" as="geometry" />
        </mxCell>
        <mxCell id="pKxLhtzKVa9f1Tuy2Bbh-19" value="&lt;span style=&quot;font-weight: normal; font-size: 18px;&quot;&gt;The target port on the container inside the pod (in this case, port 3000)&lt;/span&gt;" style="text;strokeColor=none;fillColor=none;html=1;fontSize=24;fontStyle=1;verticalAlign=middle;align=center;whiteSpace=wrap;" parent="pKxLhtzKVa9f1Tuy2Bbh-1" vertex="1">
          <mxGeometry x="-80" y="188.75" width="315" height="40" as="geometry" />
        </mxCell>
        <mxCell id="66TSn7a3yTZnmbo1iIXn-0" value="&lt;font style=&quot;font-size: 18px;&quot;&gt;Don&#39;t Panic, Another Object Which Will Discuss Much More&lt;/font&gt;" style="rounded=0;whiteSpace=wrap;html=1;fillColor=#ffe6cc;strokeColor=#d79b00;" parent="pKxLhtzKVa9f1Tuy2Bbh-1" vertex="1">
          <mxGeometry x="-800" y="60" width="490" height="60" as="geometry" />
        </mxCell>
        <mxCell id="Mz83tQ6b4maWRSeY4ITh-3" value="&lt;span style=&quot;font-weight: 400; text-align: left; text-wrap: nowrap; font-size: 18px;&quot;&gt;expose a resource (in this case, a pod)&lt;/span&gt;&lt;div style=&quot;font-size: 12px; font-weight: 400; text-align: left;&quot;&gt;&lt;span style=&quot;font-size: 18px; text-wrap: nowrap;&quot;&gt;and create a&amp;nbsp;&lt;b&gt;Service&lt;/b&gt;&lt;/span&gt;&lt;/div&gt;" style="text;strokeColor=none;fillColor=none;html=1;fontSize=24;fontStyle=1;verticalAlign=top;align=center;container=0;whiteSpace=wrap;" parent="pKxLhtzKVa9f1Tuy2Bbh-1" vertex="1">
          <mxGeometry x="-680" y="170" width="180" height="40" as="geometry" />
        </mxCell>
      </root>
    </mxGraphModel>
  </diagram>
  <diagram id="ds7OJ3chsQccRt9H-648" name="Retrieve">
    <mxGraphModel dx="1960" dy="480" grid="1" gridSize="10" guides="1" tooltips="1" connect="1" arrows="1" fold="1" page="1" pageScale="1" pageWidth="850" pageHeight="1100" math="0" shadow="0">
      <root>
        <mxCell id="0" />
        <mxCell id="1" parent="0" />
        <mxCell id="sOKpd6lIruARvOEj5UF6-1" value="" style="shape=table;startSize=0;container=1;collapsible=0;childLayout=tableLayout;fontSize=16;" vertex="1" parent="1">
          <mxGeometry x="-590" y="293.37" width="315" height="40" as="geometry" />
        </mxCell>
        <mxCell id="sOKpd6lIruARvOEj5UF6-2" style="shape=tableRow;horizontal=0;startSize=0;swimlaneHead=0;swimlaneBody=0;strokeColor=inherit;top=0;left=0;bottom=0;right=0;collapsible=0;dropTarget=0;fillColor=none;points=[[0,0.5],[1,0.5]];portConstraint=eastwest;fontSize=16;" vertex="1" parent="sOKpd6lIruARvOEj5UF6-1">
          <mxGeometry width="315" height="40" as="geometry" />
        </mxCell>
        <mxCell id="sOKpd6lIruARvOEj5UF6-3" value="kubectl" style="shape=partialRectangle;html=1;whiteSpace=wrap;connectable=0;strokeColor=inherit;overflow=hidden;fillColor=none;top=0;left=0;bottom=0;right=0;pointerEvents=1;fontSize=16;" vertex="1" parent="sOKpd6lIruARvOEj5UF6-2">
          <mxGeometry width="80" height="40" as="geometry">
            <mxRectangle width="80" height="40" as="alternateBounds" />
          </mxGeometry>
        </mxCell>
        <mxCell id="sOKpd6lIruARvOEj5UF6-4" value="get" style="shape=partialRectangle;html=1;whiteSpace=wrap;connectable=0;strokeColor=inherit;overflow=hidden;fillColor=none;top=0;left=0;bottom=0;right=0;pointerEvents=1;fontSize=16;" vertex="1" parent="sOKpd6lIruARvOEj5UF6-2">
          <mxGeometry x="80" width="95" height="40" as="geometry">
            <mxRectangle width="95" height="40" as="alternateBounds" />
          </mxGeometry>
        </mxCell>
        <mxCell id="sOKpd6lIruARvOEj5UF6-6" value="&amp;lt;object-name&amp;gt;" style="shape=partialRectangle;html=1;whiteSpace=wrap;connectable=0;strokeColor=inherit;overflow=hidden;fillColor=none;top=0;left=0;bottom=0;right=0;pointerEvents=1;fontSize=16;" vertex="1" parent="sOKpd6lIruARvOEj5UF6-2">
          <mxGeometry x="175" width="140" height="40" as="geometry">
            <mxRectangle width="140" height="40" as="alternateBounds" />
          </mxGeometry>
        </mxCell>
        <mxCell id="sOKpd6lIruARvOEj5UF6-10" value="" style="shape=curlyBracket;whiteSpace=wrap;html=1;rounded=1;labelPosition=left;verticalLabelPosition=middle;align=right;verticalAlign=middle;rotation=90;" vertex="1" parent="1">
          <mxGeometry x="-455.62" y="120" width="40" height="298.75" as="geometry" />
        </mxCell>
        <mxCell id="sOKpd6lIruARvOEj5UF6-14" value="&lt;span style=&quot;font-weight: normal; font-size: 18px;&quot;&gt;get the information of the specified Kubernetes object&lt;/span&gt;" style="text;strokeColor=none;fillColor=none;html=1;fontSize=24;fontStyle=1;verticalAlign=top;align=center;container=0;whiteSpace=wrap;" vertex="1" parent="1">
          <mxGeometry x="-650" y="200" width="450" height="40" as="geometry" />
        </mxCell>
      </root>
    </mxGraphModel>
  </diagram>
</mxfile>
